<?xml version="1.0" encoding="utf-8"?>
<!-- Generator: Adobe Illustrator 19.1.0, SVG Export Plug-In . SVG Version: 6.00 Build 0)  -->
<svg version="1.1" xmlns="http://www.w3.org/2000/svg" xmlns:xlink="http://www.w3.org/1999/xlink" x="0px" y="0px"
	 viewBox="-144.2 158.2 60 60" style="enable-background:new -144.2 158.2 60 60;" xml:space="preserve">
<style type="text/css">
	.st0{fill:none;stroke:#49918A;stroke-width:1.5;stroke-miterlimit:10;}
	.st1{fill:none;stroke:#49918A;stroke-miterlimit:10;}
	.st2{fill:none;stroke:#49918A;stroke-linecap:round;stroke-miterlimit:10;}
	.st3{fill:none;stroke:#49918A;stroke-linecap:round;stroke-linejoin:round;stroke-miterlimit:10;}
</style>
<g id="Layer_5">
	<path class="st0" d="M-93.5,183.1c0,0,6.4-19.2,6.4-19.2c0.4-1.3-11.3,2.6-11.3,2.6l-12.2,6.3l0.6,0.4c-1.4-0.2-2.8-0.3-4.2-0.3
		c-1.5,0-2.9,0.1-4.3,0.3l0.6-0.4l-12.2-6.3c0,0-11.6-4.1-11.3-2.7c0,0,6.4,20.9,6.4,20.9"/>
	<path class="st0" d="M-131.4,181.4c-0.2,1-2,1.8-2.8,2.7c-1.1,1.2-1.9,2.6-2.6,4c-1.3,2.7-2.1,5.8-2.1,8.9
		c0,8.1,6.8,13.7,14.6,12.9c0.1,0,0.3,0,0.4,0c0.1,0.1,0.2,0.2,0.2,0.3c2.1,3.3,5.6,5.5,9.7,5.5c2.1,0,4.2-0.6,5.9-1.7
		c0.9-0.6,1.7-1.3,2.5-2.1c0.4-0.4,1.1-2,1.6-2.1c0.1,0,0.3,0,0.4,0c0.8,0.1,1.6,0.3,2.4,0.3c6.9,0,12.5-5.9,12.5-13.1
		c0-3.3-1-6.6-2.5-9.5c-0.7-1.4-1.6-2.7-2.8-3.8c-0.7-0.7-3.1-1.7-3.3-2.5"/>
</g>
<g id="Layer_4">
	<path class="st1" d="M-112.9,205c-0.3,0.6-1.1,0.6-1.5,0l-1.2-2l-1.2-2c-0.3-0.6,0-1.3,0.7-1.3l2.3-0.1l2.3-0.1
		c0.7,0,1.1,0.7,0.8,1.3l-1.1,2.1L-112.9,205z"/>
	
		<ellipse transform="matrix(0.9771 0.2126 -0.2126 0.9771 37.5124 30.6757)" class="st1" cx="-123.9" cy="189.7" rx="4.2" ry="2.6"/>
	<ellipse transform="matrix(0.9755 -0.22 0.22 0.9755 -44.2517 -18.1454)" class="st1" cx="-103.6" cy="189.6" rx="4.2" ry="2.6"/>
	<path class="st2" d="M-113.2,205.3c0,0,11,8.2,12.8-5.7"/>
	<path class="st1" d="M-126,205.3"/>
	<path class="st1" d="M-114.3,205.3"/>
	<polyline class="st3" points="-119.7,189.7 -118.2,199.7 -109.4,199.7 -107.7,190.1 	"/>
	<path class="st1" d="M-102.6,193.6"/>
	<path class="st1" d="M-89.9,199.3"/>
	<path class="st2" d="M-114.3,205.3c0,0-11,8.2-12.8-5.7"/>
</g>
</svg>
