<?xml version="1.0" encoding="utf-8"?>
<!-- Generator: Adobe Illustrator 19.1.0, SVG Export Plug-In . SVG Version: 6.00 Build 0)  -->
<svg version="1.1" id="Layer_6" xmlns="http://www.w3.org/2000/svg" xmlns:xlink="http://www.w3.org/1999/xlink" x="0px" y="0px"
	 viewBox="-144.2 158.2 60 60" style="enable-background:new -144.2 158.2 60 60;" xml:space="preserve">
<style type="text/css">
	.st0{fill:none;stroke:#F2F2F2;stroke-miterlimit:10;}
	.st1{fill:none;stroke:#49918A;stroke-width:0.5;stroke-miterlimit:10;}
	.st2{fill:none;stroke:#49918A;stroke-miterlimit:10;}
	.st3{fill:#FFFFFF;stroke:#49918A;stroke-miterlimit:10;}
	.st4{fill:#FFFFFF;stroke:#49918A;stroke-width:0.5;stroke-miterlimit:10;}
</style>
<path class="st0" d="M106.1,178.7l-0.2-27.9c0-2.3,1.8-4.2,4.1-4.2l11.7-0.1c2.3,0,4.2,1.8,4.2,4.1l0.2,27.9c0,2.3-1.8,4.2-4.1,4.2
	l-11.7,0.1C108,182.8,106.1,181,106.1,178.7z"/>
<path class="st0" d="M239.4,181.7l-0.3-37c0-2.3,1.8-4.2,4.1-4.2l27.8-0.2c2.3,0,4.2,1.8,4.2,4.1l0.3,37c0,2.3-1.8,4.2-4.1,4.2
	l-27.8,0.2C241.3,185.9,239.5,184,239.4,181.7z"/>
<path class="st1" d="M-91.4,199.1h-45.5c-0.8,0-1.4-0.6-1.4-1.4v-29.5c0-0.8,0.6-1.4,1.4-1.4h45.5c0.8,0,1.4,0.6,1.4,1.4v29.5
	C-90,198.5-90.6,199.1-91.4,199.1z"/>
<path class="st2" d="M-89.3,163.1h-49.9c-1.2,0-2.2,1-2.2,2.3v36.7c0,1.2,1,2.3,2.2,2.3h21.4v6.6c-4.9,0.5-8.4,1.9-8.4,3.5
	c0,2,24.5,2,24.5,0c0-1.7-3.9-3.2-9.2-3.6v-6.5h21.7c1.2,0,2.2-1,2.2-2.3v-36.7C-87.1,164.1-88.1,163.1-89.3,163.1z"/>
<path class="st3" d="M-132.4,215.9h-8.9c-0.8,0-1.4-0.6-1.4-1.4v-17.6c0-0.8,0.6-1.4,1.4-1.4h8.9c0.8,0,1.4,0.6,1.4,1.4v17.6
	C-131,215.3-131.6,215.9-132.4,215.9z"/>
<path class="st3" d="M-103.2,214.1l0-23.6c0-0.8,0.6-1.4,1.4-1.4l14.9,0c0.8,0,1.4,0.6,1.4,1.4l0,23.6c0,0.8-0.6,1.4-1.4,1.4
	l-14.9,0C-102.5,215.5-103.2,214.9-103.2,214.1z"/>
<path class="st4" d="M-134,212.1h-5.7c-0.8,0-1.4-0.6-1.4-1.4v-12.3c0-0.8,0.6-1.4,1.4-1.4h5.7c0.8,0,1.4,0.6,1.4,1.4v12.3
	C-132.6,211.5-133.2,212.1-134,212.1z"/>
<path class="st4" d="M-88.5,212.5h-11.4c-0.8,0-1.4-0.6-1.4-1.4V192c0-0.8,0.6-1.4,1.4-1.4h11.4c0.8,0,1.4,0.6,1.4,1.4v19.1
	C-87.1,211.9-87.7,212.5-88.5,212.5z"/>
<ellipse class="st4" cx="-93.8" cy="213.9" rx="0.6" ry="0.5"/>
<ellipse class="st4" cx="-136.9" cy="213.9" rx="0.6" ry="0.5"/>
</svg>
